<?xml version="1.0" encoding="utf-8"?>
<!-- Generator: Adobe Illustrator 24.2.3, SVG Export Plug-In . SVG Version: 6.00 Build 0)  -->
<svg version="1.1" id="Layer_1" xmlns="http://www.w3.org/2000/svg" xmlns:xlink="http://www.w3.org/1999/xlink" x="0px" y="0px"
	 viewBox="0 0 48 12" style="enable-background:new 0 0 48 12;" xml:space="preserve">
<style type="text/css">
	.st0{clip-path:url(#SVGID_2_);fill:#120064;}
</style>
<g>
	<defs>
		<rect id="SVGID_1_" x="-0.05" y="0.07" width="48.1" height="11.86"/>
	</defs>
	<clipPath id="SVGID_2_">
		<use xlink:href="#SVGID_1_"  style="overflow:visible;"/>
	</clipPath>
	<path class="st0" d="M15.4,3.34c-0.86,0-1.66,0.31-2.25,0.86l-0.2,0.19V0.07h-2.3v7.39c0,2.76,1.65,4.47,4.3,4.47
		c2.59,0,4.48-1.8,4.48-4.29C19.43,5.15,17.74,3.34,15.4,3.34 M15.03,9.83c-1.21,0-2.19-0.98-2.19-2.19s0.98-2.19,2.19-2.19
		c1.21,0,2.19,0.98,2.19,2.19S16.24,9.83,15.03,9.83"/>
	<polygon class="st0" points="6.83,0.07 2.28,5.35 2.28,0.07 -0.05,0.07 -0.05,11.66 2.28,11.66 2.28,6.43 6.92,11.66 9.91,11.66 
		4.77,5.86 9.77,0.07 	"/>
	<polygon class="st0" points="48.05,3.61 45.49,3.61 42.55,7.09 42.55,0.07 40.25,0.07 40.25,11.66 42.55,11.66 42.55,8.19 
		45.49,11.66 48.05,11.66 44.64,7.64 	"/>
	<path class="st0" d="M35.74,3.34c-1.42,0-2.29,0.66-2.71,1.13V3.62h-2.22v8.04h2.3l0-4.38c0-1.1,0.76-1.86,1.72-1.86
		s1.72,0.76,1.72,1.86v4.38h2.3V6.59C38.84,4.71,37.48,3.34,35.74,3.34"/>
	<path class="st0" d="M24.94,3.34c-2.57,0-4.43,1.81-4.43,4.3c0,2.48,1.72,4.29,4.08,4.29c1.68,0,2.58-1.22,2.59-1.23l0.13-0.18
		v1.14h2.09V7.64C29.4,5.15,27.53,3.34,24.94,3.34 M25.01,9.83c-1.21,0-2.19-0.98-2.19-2.19s0.98-2.19,2.19-2.19
		c1.21,0,2.19,0.98,2.19,2.19S26.22,9.83,25.01,9.83"/>
</g>
</svg>
